<svg xmlns="http://www.w3.org/2000/svg" width="214.2" height="339.7" viewBox="0 0 214.2 339.7"><path fill="#d8c2ab" d="M69 54.2a13.6 13.6 0 1 1-27.1 0 13.6 13.6 0 0 1 27.1 0zm40.3-4.6a.8.8 0 0 0-.2.4c-1 1.6-23.3 37.6-53.7 37.6S2.7 51.6 1.8 50a.8.8 0 0 1-.2-.4 24.8 24.8 0 0 1 .3-18.4c3.6-8.7 11.7-15.6 24.2-20.7 8.4-3.3 16.4-6.1 29.2-6.6h.3c12.8.5 20.7 3.3 29.1 6.6 12.5 5.1 20.7 12 24.3 20.7a25.3 25.3 0 0 1 .3 18.4zm-14.2 6.8l-8.4-4.5a8.9 8.9 0 0 1-4.3 1.1 9.9 9.9 0 0 1 0-19.7 9.7 9.7 0 0 1 9.8 8.9l9.7 5.2.7-1a17.7 17.7 0 0 0-.6-12.5q-4.2-10-20.1-16.5c-7.6-3-14.9-5.6-26.5-6.1s-18.5 2.9-26.5 6.1c-10.5 4.3-17.3 9.8-20.1 16.5a18.1 18.1 0 0 0-.5 12.5l.7 1 9.7-5.2a9.7 9.7 0 0 1 9.7-8.9 9.9 9.9 0 1 1 0 19.7 9.2 9.2 0 0 1-4.3-1.1l-8.3 4.5c8.3 10 22.9 23.7 39.6 23.7s31.3-13.7 39.7-23.7zM69 310.2a13.6 13.6 0 1 1-27.1 0 13.6 13.6 0 0 1 27.1 0zm40.3-4.6a.8.8 0 0 0-.2.4c-1 1.6-23.3 37.6-53.7 37.6S2.7 307.6 1.8 306l-.2-.4a24.8 24.8 0 0 1 .3-18.4c3.6-8.7 11.7-15.6 24.2-20.7 8.4-3.3 16.4-6.1 29.2-6.6h.3c12.8.5 20.7 3.3 29.1 6.6 12.5 5.1 20.7 12 24.3 20.7a25.3 25.3 0 0 1 .3 18.4zm-14.2 6.8l-8.4-4.5a8.9 8.9 0 0 1-4.3 1.1 9.9 9.9 0 0 1 0-19.7 9.7 9.7 0 0 1 9.8 8.9l9.7 5.2.7-1a17.7 17.7 0 0 0-.6-12.5q-4.2-10-20.1-16.5c-7.6-3-14.9-5.6-26.5-6.1s-18.5 2.9-26.5 6.1c-10.5 4.3-17.3 9.8-20.1 16.5a18.1 18.1 0 0 0-.5 12.5l.7 1 9.7-5.2a9.7 9.7 0 0 1 9.7-8.9 9.9 9.9 0 1 1 0 19.7 9.2 9.2 0 0 1-4.3-1.1l-8.3 4.5c8.3 10 22.9 23.7 39.6 23.7s31.3-13.7 39.7-23.7zm79-130.2a13.6 13.6 0 1 1-13.5-13.5 13.5 13.5 0 0 1 13.5 13.5zm40.3-4.6a.8.8 0 0 1-.2.4c-.9 1.6-23.2 37.6-53.6 37.6s-52.7-36-53.7-37.6l-.2-.4a25.3 25.3 0 0 1 .3-18.4c3.6-8.7 11.8-15.6 24.3-20.7 8.4-3.3 16.3-6.1 29.1-6.6h.3c12.8.5 20.8 3.3 29.1 6.6q18.9 7.6 24.3 20.7a24.8 24.8 0 0 1 .3 18.4zm-14.2 6.8l-8.3-4.5a9.2 9.2 0 0 1-4.3 1.1 9.9 9.9 0 1 1 0-19.7 9.7 9.7 0 0 1 9.7 8.9l9.7 5.2.7-1a18.1 18.1 0 0 0-.5-12.5c-2.8-6.7-9.6-12.2-20.1-16.5-7.7-3-15-5.6-26.5-6.1s-18.6 2.9-26.5 6.1q-15.9 6.4-20.1 16.5a17.7 17.7 0 0 0-.6 12.5l.7 1 9.7-5.2a9.8 9.8 0 0 1 19.6.9 9.9 9.9 0 0 1-9.8 9.9 8.9 8.9 0 0 1-4.3-1.1l-8.4 4.5c8.4 10 22.9 23.7 39.7 23.7s31.3-13.7 39.6-23.7z"/></svg>